SplineFontDB: 3.0
FontName: Pentatonic
FullName: Pentatonic
FamilyName: Pentatonic
Weight: Regular
Copyright: Copyright (c) 2016, Michael Tolly
UComments: "2016-10-4: Created with FontForge (http://fontforge.org)"
Version: 001.000
ItalicAngle: 0
UnderlinePosition: -102
UnderlineWidth: 51
Ascent: 819
Descent: 205
InvalidEm: 0
LayerCount: 3
Layer: 0 0 "Back" 1
Layer: 1 0 "Fore" 0
Layer: 2 0 "Back 2" 1
XUID: [1021 15 902490472 7850117]
StyleMap: 0x0000
FSType: 0
OS2Version: 0
OS2_WeightWidthSlopeOnly: 0
OS2_UseTypoMetrics: 1
CreationTime: 1475629050
ModificationTime: 1476509138
OS2TypoAscent: 0
OS2TypoAOffset: 1
OS2TypoDescent: 0
OS2TypoDOffset: 1
OS2TypoLinegap: 92
OS2WinAscent: 0
OS2WinAOffset: 1
OS2WinDescent: 0
OS2WinDOffset: 1
HheadAscent: 0
HheadAOffset: 1
HheadDescent: 0
HheadDOffset: 1
OS2Vendor: 'PfEd'
Lookup: 258 0 0 "'kern' Horizontal Kerning in Latin lookup 0" { "'kern' Horizontal Kerning in Latin lookup 0-1" [90,9,0] } ['kern' ('DFLT' <'dflt' > 'latn' <'dflt' > ) ]
MarkAttachClasses: 1
DEI: 91125
Encoding: ISO8859-1
UnicodeInterp: none
NameList: AGL For New Fonts
DisplaySize: -48
AntiAlias: 1
FitToEm: 0
WidthSeparation: 90
WinInfo: 21 21 6
BeginPrivate: 0
EndPrivate
Grid
-1024 643.799987793 m 0
 2048 643.799987793 l 1024
  Named: "top of lowercase b"
-1024 481.799987793 m 0
 2048 481.799987793 l 1024
  Named: "top of lowercase"
-1024 627.299987793 m 0
 2048 627.299987793 l 1024
  Named: "top of capitals"
EndSplineSet
BeginChars: 256 95

StartChar: A
Encoding: 65 65 0
Width: 702
VWidth: 0
Flags: W
HStem: 0 21G<27 153.182 547.818 674> 132 109<235 460> 607 20G<267.089 436.815>
LayerCount: 3
Fore
SplineSet
275 627 m 1
 429 627 l 1
 674 0 l 1
 556 0 l 1
 502 132 l 1
 199 132 l 1
 145 0 l 1
 27 0 l 1
 275 627 l 1
346 520 m 1
 235 241 l 1
 460 241 l 1
 346 520 l 1
EndSplineSet
Validated: 1
EndChar

StartChar: B
Encoding: 66 66 1
Width: 609
VWidth: 0
Flags: HW
LayerCount: 3
Fore
SplineSet
355 100 m 2
 430 100 465 144 465 189 c 0
 465 238 426 287 355 287 c 2
 159 287 l 1
 159 100 l 1
 355 100 l 2
366 382 m 2
 418 382 445 417 445 452 c 0
 445 485 420 518 366 518 c 2
 159 518 l 1
 159 382 l 1
 366 382 l 2
370 624 m 2
 500 624 553 547 553 472 c 0
 553 413 519 356 462 341 c 1
 535 325 573 257 573 186 c 0
 573 96 512 0 384 0 c 2
 44 0 l 1
 44 624 l 1
 370 624 l 2
EndSplineSet
Validated: 1
EndChar

StartChar: C
Encoding: 67 67 2
Width: 665
VWidth: 0
Flags: HW
LayerCount: 3
Fore
SplineSet
346 643 m 0
 496 643 586 561 628 455 c 1
 509 455 l 1
 473 505 418 536 351 538 c 0
 349 538 348 538 346 538 c 0
 252 538 156 458 150 334 c 0
 150 330 150 325 150 321 c 0
 150 191 239 104 353 99 c 0
 356 99 358 99 361 99 c 0
 427 99 481 133 515 185 c 1
 634 185 l 1
 584 56 464 -10 349 -10 c 0
 347 -10 346 -10 344 -10 c 0
 160 -7 35 145 35 321 c 0
 35 322 35 324 35 325 c 0
 38 518 192 643 346 643 c 0
EndSplineSet
Validated: 1
EndChar

StartChar: D
Encoding: 68 68 3
Width: 645
VWidth: 0
Flags: HW
LayerCount: 3
Fore
SplineSet
296 628 m 2
 503 628 607 470 607 313 c 0
 607 156 504 0 298 0 c 2
 44 0 l 1
 44 628 l 1
 296 628 l 2
294 106 m 2
 429 106 490 210 490 314 c 0
 490 417 430 520 325 520 c 0
 273 520 214 520 160 520 c 1
 160 106 l 1
 294 106 l 2
EndSplineSet
Validated: 1
EndChar

StartChar: E
Encoding: 69 69 4
Width: 538
VWidth: 0
Flags: HW
LayerCount: 3
Fore
SplineSet
44 625 m 1
 489 625 l 1
 489 518 l 1
 164 518 l 1
 164 382 l 1
 464 382 l 1
 464 275 l 1
 164 275 l 1
 164 104 l 1
 501 104 l 1
 501 0 l 1
 44 0 l 1
 44 625 l 1
EndSplineSet
Validated: 1
EndChar

StartChar: at
Encoding: 64 64 5
Width: 842
VWidth: 0
Flags: HW
LayerCount: 3
Fore
SplineSet
595 236 m 2
 595 183 604 138 651 138 c 0
 677 138 708 158 708 244 c 0
 708 410 587 543 415 543 c 0
 252 543 136 410 136 244 c 0
 136 71 264 -56 422 -56 c 0
 513 -56 580 -29 626 16 c 1
 749 16 l 1
 689 -80 582 -142 421 -142 c 0
 198 -142 34 18 34 246 c 0
 34 460 198 634 421 634 c 0
 644 634 809 450 809 246 c 0
 809 171 781 88 708 68 c 0
 682 61 660 58 641 58 c 0
 551 58 528 122 521 122 c 1
 498 82 458 56 397 56 c 0
 382 56 366 58 349 61 c 0
 263 77 224 162 224 244 c 0
 224 290 236 335 260 366 c 0
 296 413 344 433 393 433 c 0
 432 433 472 420 507 396 c 1
 507 426 l 1
 595 426 l 1
 595 236 l 2
318 246 m 0
 318 192 359 148 408 148 c 0
 457 148 497 192 497 246 c 0
 497 300 457 344 408 344 c 0
 359 344 318 300 318 246 c 0
EndSplineSet
Validated: 1
EndChar

StartChar: F
Encoding: 70 70 6
Width: 532
VWidth: 0
Flags: HW
LayerCount: 3
Fore
SplineSet
44 629 m 1
 497 629 l 1
 497 520 l 1
 162 520 l 1
 162 386 l 1
 463 386 l 1
 463 281 l 1
 162 281 l 1
 162 0 l 1
 44 0 l 1
 44 629 l 1
EndSplineSet
Validated: 1
EndChar

StartChar: G
Encoding: 71 71 7
Width: 672
VWidth: 0
Flags: HW
LayerCount: 3
Fore
SplineSet
285 371 m 1
 622 371 l 1
 622 100 l 1
 564 37 444 -6 327 -6 c 0
 287 -6 247 -1 211 10 c 0
 84 49 27 183 27 308 c 0
 27 371 41 432 68 478 c 0
 136 595 239 638 336 638 c 0
 471 638 595 556 603 478 c 1
 481 478 l 1
 456 515 400 537 341 537 c 0
 287 537 231 519 196 476 c 0
 154 426 138 371 138 318 c 0
 138 234 179 157 220 125 c 0
 254 98 297 87 339 87 c 0
 405 87 472 113 513 147 c 1
 513 269 l 1
 285 269 l 1
 285 371 l 1
EndSplineSet
Validated: 1
EndChar

StartChar: H
Encoding: 72 72 8
Width: 655
VWidth: 0
Flags: HW
LayerCount: 3
Fore
SplineSet
44 625 m 1
 157 625 l 1
 157 385 l 1
 489 385 l 1
 489 625 l 1
 609 625 l 1
 609 0 l 1
 489 0 l 1
 489 278 l 1
 157 278 l 1
 157 0 l 1
 44 0 l 1
 44 625 l 1
EndSplineSet
Validated: 1
EndChar

StartChar: I
Encoding: 73 73 9
Width: 210
VWidth: 0
Flags: W
HStem: 0 21G<44 164> 611 20G<44 164>
VStem: 44 120<0 631>
LayerCount: 3
Fore
SplineSet
44 0 m 1
 44 631 l 1
 164 631 l 1
 164 0 l 1
 44 0 l 1
EndSplineSet
Validated: 1
EndChar

StartChar: J
Encoding: 74 74 10
Width: 292
VWidth: 0
Flags: HW
LayerCount: 3
Fore
SplineSet
137 624 m 1
 247 624 l 1
 247 176 l 2
 247 37 181 2 79 2 c 0
 65 2 49 3 33 4 c 1
 33 103 l 1
 37 103 41 103 45 103 c 0
 125 103 137 133 137 182 c 2
 137 624 l 1
EndSplineSet
Validated: 1
EndChar

StartChar: K
Encoding: 75 75 11
Width: 618
VWidth: 0
Flags: HW
LayerCount: 3
Fore
SplineSet
44 629 m 1
 160 629 l 1
 160 416 l 1
 436 629 l 1
 588 629 l 1
 588 621 l 1
 335 429 l 1
 588 4 l 1
 588 0 l 1
 456 0 l 1
 246 362 l 1
 160 296 l 1
 160 0 l 1
 44 0 l 1
 44 629 l 1
EndSplineSet
Validated: 1
EndChar

StartChar: L
Encoding: 76 76 12
Width: 526
VWidth: 0
Flags: HW
LayerCount: 3
Fore
SplineSet
44 627 m 1
 161 627 l 1
 161 108 l 1
 488 108 l 1
 488 0 l 1
 44 0 l 1
 44 627 l 1
EndSplineSet
Validated: 1
EndChar

StartChar: M
Encoding: 77 77 13
Width: 839
VWidth: 0
Flags: HW
LayerCount: 3
Fore
SplineSet
44 628 m 1
 231 628 l 1
 419 156 l 1
 603 628 l 1
 793 628 l 1
 793 0 l 1
 681 0 l 1
 681 523 l 1
 470 0 l 1
 367 0 l 1
 152 523 l 1
 152 0 l 1
 44 0 l 1
 44 628 l 1
EndSplineSet
Validated: 1
EndChar

StartChar: N
Encoding: 78 78 14
Width: 664
VWidth: 0
Flags: HW
LayerCount: 3
Fore
SplineSet
44 628 m 1
 221 628 l 1
 505 173 l 1
 505 628 l 1
 618 628 l 1
 618 0 l 1
 488 0 l 1
 157 516 l 1
 157 0 l 1
 44 0 l 1
 44 628 l 1
EndSplineSet
Validated: 1
EndChar

StartChar: O
Encoding: 79 79 15
Width: 723
VWidth: 0
Flags: W
HStem: -9 109<271.8 449.365> 539 105<273.886 453.046>
VStem: 35 120<218.768 418.846> 567 118<220.768 421.803>
LayerCount: 3
Fore
SplineSet
359 644 m 0
 555 642 685 491 685 308 c 0
 685 117 517 -9 362 -9 c 0
 360 -9 359 -9 357 -9 c 0
 165 -6 35 146 35 322 c 0
 35 323 35 325 35 326 c 0
 38 518 196 644 355 644 c 0
 356 644 358 644 359 644 c 0
365 539 m 0
 363 539 362 539 360 539 c 0
 263 539 161 459 155 335 c 0
 155 330 155 326 155 321 c 0
 155 192 237 105 356 100 c 0
 358 100 361 100 363 100 c 0
 480 100 567 200 567 313 c 0
 567 441 488 535 365 539 c 0
EndSplineSet
Validated: 1
EndChar

StartChar: P
Encoding: 80 80 16
Width: 610
VWidth: 0
Flags: HW
LayerCount: 3
Fore
SplineSet
381 626 m 2
 512 626 573 535 573 442 c 0
 573 345 506 245 381 245 c 2
 157 245 l 1
 157 0 l 1
 44 0 l 1
 44 626 l 1
 381 626 l 2
381 353 m 2
 436 353 464 396 464 439 c 0
 464 481 437 522 381 522 c 2
 157 522 l 1
 157 353 l 1
 381 353 l 2
EndSplineSet
Validated: 1
EndChar

StartChar: Q
Encoding: 81 81 17
Width: 729
VWidth: 0
Flags: HW
LayerCount: 3
Fore
SplineSet
359 642 m 0
 571 639 685 489 685 306 c 0
 685 224 654 154 607 101 c 1
 698 3 l 1
 558 3 l 1
 528 36 l 1
 477 6 416 -9 360 -9 c 0
 358 -9 357 -9 355 -9 c 0
 164 -6 35 122 35 317 c 0
 35 319 35 322 35 324 c 0
 38 533 196 642 355 642 c 0
 356 642 358 642 359 642 c 0
354 537 m 0
 245 536 161 455 155 333 c 0
 155 327 155 321 155 316 c 0
 155 179 238 103 356 98 c 0
 359 98 361 98 364 98 c 0
 398 98 427 104 454 117 c 1
 312 273 l 1
 448 273 l 1
 531 183 l 1
 557 219 571 264 571 311 c 0
 571 439 488 533 365 537 c 0
 361 537 358 537 354 537 c 0
EndSplineSet
Validated: 1
EndChar

StartChar: R
Encoding: 82 82 18
Width: 607
VWidth: 0
Flags: HW
LayerCount: 3
Fore
SplineSet
379 627 m 1
 510 627 571 537 571 451 c 0
 571 368 515 284 411 270 c 1
 569 0 l 1
 444 0 l 1
 278 268 l 1
 155 268 l 1
 155 0 l 1
 44 0 l 1
 44 627 l 1
 379 627 l 1
379 370 m 2
 434 370 462 410 462 449 c 0
 462 487 435 525 379 525 c 2
 155 525 l 1
 155 370 l 1
 379 370 l 2
EndSplineSet
Validated: 1
EndChar

StartChar: S
Encoding: 83 83 19
Width: 616
VWidth: 0
Flags: HW
LayerCount: 3
Fore
SplineSet
29 189 m 1
 152 189 l 1
 171 120 250 87 325 87 c 0
 392 87 456 113 469 162 c 0
 470 167 471 171 471 176 c 0
 471 218 419 251 361 270 c 0
 322 283 253 293 218 297 c 0
 191 300 130 316 86 373 c 0
 68 396 56 426 56 459 c 0
 56 489 65 521 87 556 c 0
 123 615 207 643 294 643 c 0
 421 643 555 584 568 472 c 1
 446 472 l 1
 418 532 352 547 294 547 c 0
 286 547 278 546 271 546 c 0
 222 542 176 514 171 472 c 0
 171 468 170 465 170 461 c 0
 170 424 200 410 247 396 c 0
 289 384 349 374 405 361 c 0
 466 347 548 305 568 253 c 0
 576 231 580 206 580 181 c 0
 580 147 572 113 559 90 c 0
 519 22 421 -2 348 -9 c 0
 337 -10 326 -11 315 -11 c 0
 168 -11 36 80 29 189 c 1
EndSplineSet
Validated: 1
EndChar

StartChar: T
Encoding: 84 84 20
Width: 630
VWidth: 0
Flags: HW
LayerCount: 3
Fore
SplineSet
33 626 m 1
 595 626 l 1
 595 517 l 1
 373 517 l 1
 373 0 l 1
 258 0 l 1
 258 517 l 1
 33 517 l 1
 33 626 l 1
EndSplineSet
Validated: 1
EndChar

StartChar: U
Encoding: 85 85 21
Width: 644
VWidth: 0
Flags: HW
LayerCount: 3
Fore
SplineSet
601 263 m 2
 601 76 461 -18 321 -18 c 0
 181 -18 41 76 41 263 c 2
 41 627 l 1
 163 627 l 1
 163 249 l 2
 163 142 240 91 319 91 c 0
 401 91 484 146 484 249 c 2
 484 627 l 1
 601 627 l 1
 601 263 l 2
EndSplineSet
Validated: 1
EndChar

StartChar: V
Encoding: 86 86 22
Width: 701
VWidth: 0
Flags: HW
LayerCount: 3
Fore
SplineSet
28 627 m 1
 150 627 l 1
 352 102 l 1
 560 627 l 1
 674 627 l 1
 427 0 l 1
 278 0 l 1
 28 627 l 1
EndSplineSet
Validated: 1
EndChar

StartChar: W
Encoding: 87 87 23
Width: 976
VWidth: 0
Flags: HW
HStem: 0 21G<200.325 361.462 624.458 780.452>
LayerCount: 3
Fore
SplineSet
28 627 m 1
 145 627 l 1
 287 112 l 1
 419 627 l 1
 567 627 l 1
 702 112 l 1
 843 627 l 1
 946 627 l 1
 775 0 l 1
 630 0 l 1
 492 498 l 1
 356 0 l 1
 206 0 l 1
 28 627 l 1
EndSplineSet
Validated: 1
EndChar

StartChar: X
Encoding: 88 88 24
Width: 642
VWidth: 0
Flags: HW
LayerCount: 3
Fore
SplineSet
34 627 m 1
 160 627 l 1
 323 405 l 1
 482 627 l 1
 606 627 l 1
 388 315 l 1
 615 0 l 1
 479 0 l 1
 313 235 l 1
 149 0 l 1
 27 0 l 1
 250 325 l 1
 34 627 l 1
EndSplineSet
Validated: 1
EndChar

StartChar: Y
Encoding: 89 89 25
Width: 673
VWidth: 0
Flags: HW
LayerCount: 3
Fore
SplineSet
26 627 m 1
 152 627 l 1
 340 358 l 1
 521 627 l 1
 646 627 l 1
 397 252 l 1
 397 0 l 1
 280 0 l 1
 280 253 l 1
 26 627 l 1
EndSplineSet
Validated: 1
EndChar

StartChar: Z
Encoding: 90 90 26
Width: 568
VWidth: 0
Flags: HW
LayerCount: 3
Fore
SplineSet
49 627 m 1
 524 627 l 1
 524 533 l 1
 174 110 l 1
 531 110 l 1
 531 0 l 1
 35 0 l 1
 35 113 l 1
 379 527 l 1
 49 527 l 1
 49 627 l 1
EndSplineSet
Validated: 1
EndChar

StartChar: a
Encoding: 97 97 27
Width: 519
VWidth: 0
Flags: HW
LayerCount: 3
Fore
SplineSet
279 489 m 0
 379 488 475 439 475 343 c 2
 475 1 l 1
 380 1 l 1
 368 48 l 1
 332 13 270 -5 210 -5 c 0
 143 -5 80 17 59 61 c 0
 41 98 33 131 33 159 c 0
 33 257 137 299 292 299 c 0
 315 299 339 298 364 296 c 1
 366 303 367 310 367 317 c 0
 367 367 312 396 260 396 c 0
 220 396 182 379 168 343 c 1
 55 343 l 1
 74 441 177 489 276 489 c 0
 277 489 278 489 279 489 c 0
293 209 m 0
 201 209 144 194 142 158 c 0
 142 157 142 155 142 153 c 0
 142 135 148 101 175 97 c 0
 203 93 226 92 247 92 c 0
 337 92 363 125 363 184 c 0
 363 191 363 199 362 207 c 1
 338 208 314 209 293 209 c 0
EndSplineSet
Validated: 1
EndChar

StartChar: b
Encoding: 98 98 28
Width: 578
VWidth: 0
Flags: W
HStem: -8 99<217.412 360.435> 1 21G<44 142.681> 380 108<218.528 359.472> 624 20G<44 159>
VStem: 44 115<149.279 322.36 427 644> 425 115<158.434 313.917>
LayerCount: 3
Fore
SplineSet
44 644 m 5x7c
 159 644 l 5
 159 427 l 5
 199 466 255 487 311 488 c 4
 312 488 314 488 315 488 c 4
 378 488 439 463 480 410 c 4
 522 356 540 295 540 237 c 4
 540 171 516 108 480 62 c 4
 443 14 375 -8 309 -8 c 4xbc
 246 -8 185 12 149 48 c 5
 138 1 l 5
 44 1 l 5
 44 644 l 5x7c
289 380 m 4
 214 380 153 316 153 236 c 4
 153 156 214 91 289 91 c 4
 364 91 425 156 425 236 c 4
 425 316 364 380 289 380 c 4
EndSplineSet
Validated: 1
EndChar

StartChar: c
Encoding: 99 99 29
Width: 541
VWidth: 0
Flags: HW
LayerCount: 3
Fore
SplineSet
278 495 m 0
 382 495 472 427 506 332 c 1
 378 332 l 1
 357 363 311 388 277 388 c 0
 206 388 149 322 149 240 c 0
 149 158 206 92 277 92 c 0
 315 92 364 123 385 160 c 1
 507 160 l 1
 474 62 384 -8 278 -8 c 0
 129 -8 35 105 35 244 c 0
 35 383 144 495 278 495 c 0
EndSplineSet
Validated: 1
EndChar

StartChar: d
Encoding: 100 100 30
Width: 577
VWidth: 0
Flags: HW
LayerCount: 3
Fore
SplineSet
531 644 m 1
 531 1 l 1
 437 1 l 1
 426 48 l 1
 390 12 329 -8 266 -8 c 0
 200 -8 132 14 95 62 c 0
 59 108 35 171 35 237 c 0
 35 295 53 356 95 410 c 0
 136 463 197 488 260 488 c 0
 261 488 263 488 264 488 c 0
 320 487 376 466 416 427 c 1
 416 644 l 1
 531 644 l 1
286 380 m 0
 211 380 150 316 150 236 c 0
 150 156 211 91 286 91 c 0
 361 91 422 156 422 236 c 0
 422 316 361 380 286 380 c 0
EndSplineSet
Validated: 1
EndChar

StartChar: e
Encoding: 101 101 31
Width: 548
VWidth: 0
Flags: HW
LayerCount: 3
Fore
SplineSet
276 492 m 4
 409 492 510 403 510 242 c 4
 510 225 509 209 507 194 c 5
 151 194 l 5
 166 134 211 91 277 91 c 4
 318 91 353 105 376 136 c 5
 494 136 l 5
 450 10 327 -8 276 -8 c 4
 143 -8 35 86 35 242 c 4
 35 391 143 492 276 492 c 4
277 391 m 4
 222 391 174 349 155 293 c 5
 397 293 l 5
 381 354 336 391 277 391 c 4
EndSplineSet
Validated: 1
EndChar

StartChar: f
Encoding: 102 102 32
Width: 322
VWidth: 0
Flags: HW
LayerCount: 3
Fore
SplineSet
94 493 m 2
 94 625 157 643 249 643 c 2
 286 643 l 1
 286 544 l 1
 239 544 208 541 208 493 c 2
 208 479 l 1
 283 479 l 1
 283 380 l 1
 208 380 l 1
 208 0 l 1
 94 0 l 1
 94 380 l 1
 33 380 l 1
 33 479 l 1
 94 479 l 1
 94 493 l 2
EndSplineSet
Validated: 1
EndChar

StartChar: g
Encoding: 103 103 33
Width: 577
VWidth: 0
Flags: HW
LayerCount: 3
Fore
SplineSet
46 1 m 1
 169 -1 l 1
 191 -36 243 -57 293 -57 c 0
 356 -57 417 -25 417 54 c 0
 417 60 417 67 416 73 c 1
 376 35 320 16 264 15 c 0
 263 15 261 15 260 15 c 0
 197 15 136 39 95 90 c 0
 53 142 35 200 35 255 c 0
 35 318 59 378 95 423 c 0
 132 469 199 490 266 490 c 0
 328 490 390 472 426 437 c 1
 437 481 l 1
 531 481 l 1
 531 54 l 2
 531 -73 412 -145 289 -145 c 0
 191 -145 91 -100 46 1 c 1
286 118 m 0
 361 118 422 180 422 257 c 0
 422 334 361 395 286 395 c 0
 211 395 150 334 150 257 c 0
 150 180 211 118 286 118 c 0
EndSplineSet
Validated: 1
EndChar

StartChar: h
Encoding: 104 104 34
Width: 521
VWidth: 0
Flags: W
HStem: 0 21G<44 158 363 478> 380 107<218.3 333.136> 625 20G<44 158> 625 20G<44 158>
VStem: 44 114<0 346.632 419 645> 363 115<0 347.859>
LayerCount: 3
Fore
SplineSet
158 419 m 1xec
 187 456 251 487 313 487 c 0
 396 487 478 434 478 275 c 2
 478 0 l 1
 363 0 l 1
 363 288 l 2
 363 353 317 380 268 380 c 0
 214 380 158 347 158 296 c 2
 158 0 l 1
 44 0 l 1
 44 645 l 1
 158 645 l 1
 158 419 l 1xec
EndSplineSet
Validated: 1
EndChar

StartChar: i
Encoding: 105 105 35
Width: 208
VWidth: 0
Flags: HW
LayerCount: 3
Fore
SplineSet
44 629 m 1
 162 629 l 1
 162 522 l 1
 44 522 l 1
 44 629 l 1
44 479 m 1
 162 479 l 1
 162 0 l 1
 44 0 l 1
 44 479 l 1
EndSplineSet
Validated: 1
EndChar

StartChar: j
Encoding: 106 106 36
Width: 228
VWidth: 0
Flags: HW
LayerCount: 3
Fore
SplineSet
64 626 m 1
 182 626 l 1
 182 518 l 1
 64 518 l 1
 64 626 l 1
64 475 m 1
 182 475 l 1
 182 -4 l 2
 182 -87 149 -141 49 -141 c 0
 42 -141 35 -141 27 -140 c 1
 27 -42 l 1
 55 -40 64 -33 64 -4 c 2
 64 475 l 1
EndSplineSet
Validated: 1
EndChar

StartChar: k
Encoding: 107 107 37
Width: 517
VWidth: 0
Flags: W
HStem: 0 21G<44 163 337.817 478> 458 20G<314.19 490> 626 20G<44 163>
VStem: 44 119<0 202 331 646>
LayerCount: 3
Fore
SplineSet
44 646 m 1
 163 646 l 1
 163 331 l 1
 338 478 l 1
 490 478 l 1
 317 332 l 1
 478 0 l 1
 347 0 l 1
 229 257 l 1
 163 202 l 1
 163 0 l 1
 44 0 l 1
 44 646 l 1
EndSplineSet
Validated: 1
EndChar

StartChar: l
Encoding: 108 108 38
Width: 204
VWidth: 0
Flags: HW
LayerCount: 3
Fore
SplineSet
44 0 m 1
 44 646 l 1
 158 646 l 1
 158 0 l 1
 44 0 l 1
EndSplineSet
Validated: 1
EndChar

StartChar: m
Encoding: 109 109 39
Width: 810
VWidth: 0
Flags: HW
LayerCount: 3
Fore
SplineSet
150 417 m 1
 186 464 241 485 295 485 c 0
 360 485 423 453 446 398 c 1
 472 452 537 485 602 485 c 0
 685 485 767 433 767 303 c 2
 767 0 l 1
 650 0 l 1
 650 303 l 2
 650 354 604 380 558 380 c 0
 511 380 465 354 465 303 c 2
 465 0 l 1
 346 0 l 1
 346 303 l 2
 346 354 299 380 252 380 c 0
 206 380 161 355 161 303 c 2
 161 0 l 1
 43 0 l 1
 43 478 l 1
 138 478 l 1
 150 417 l 1
EndSplineSet
Validated: 1
EndChar

StartChar: n
Encoding: 110 110 40
Width: 524
VWidth: 0
Flags: W
HStem: 0 21G<43 165 361 481> 380 103<209.385 331.858>
VStem: 43 122<0 354.546> 43 99<441.563 478> 361 120<0 352.711>
LayerCount: 3
Fore
SplineSet
154 417 m 1xd8
 185 458 245 483 306 483 c 0
 393 483 481 432 481 304 c 0
 481 303 l 2
 481 0 l 1
 361 0 l 1
 361 303 l 2
 361 354 311 380 262 380 c 0
 213 380 165 355 165 303 c 2
 165 0 l 1
 43 0 l 1xe8
 43 478 l 1
 142 478 l 1
 154 417 l 1xd8
EndSplineSet
Validated: 1
EndChar

StartChar: o
Encoding: 111 111 41
Width: 568
VWidth: 0
Flags: W
HStem: -7 104<210.07 355.453> 387 106<210.814 354.148>
VStem: 35 121<154.698 331.995> 416 114<157.706 327.774>
LayerCount: 3
Fore
SplineSet
282 493 m 4
 431 491 530 375 530 235 c 4
 530 89 404 -7 285 -7 c 4
 284 -7 282 -7 281 -7 c 4
 135 -4 35 110 35 245 c 4
 35 246 35 248 35 249 c 4
 37 396 157 493 278 493 c 4
 279 493 281 493 282 493 c 4
286 387 m 4
 284 387 283 387 281 387 c 4
 220 387 160 350 156 256 c 4
 156 251 156 246 156 242 c 4
 156 146 206 100 279 97 c 4
 281 97 283 97 285 97 c 4
 357 97 416 154 416 240 c 4
 416 328 368 384 286 387 c 4
EndSplineSet
Validated: 1
EndChar

StartChar: p
Encoding: 112 112 42
Width: 575
VWidth: 0
Flags: W
HStem: -9 108<217.528 358.472> 388 103<216.426 359.056> 457 20G<43 142.6>
VStem: 43 115<-133 52 156.64 329.721> 424 113<165.439 321.96>
LayerCount: 3
Fore
SplineSet
43 -133 m 5xd8
 43 477 l 5
 137 477 l 5xb8
 151 427 l 5
 188 468 252 491 315 491 c 4
 379 491 443 468 479 417 c 4
 514 368 537 305 537 238 c 4
 537 181 520 123 479 69 c 4
 438 16 376 -9 314 -9 c 4
 312 -9 311 -9 310 -9 c 4
 254 -8 198 13 158 52 c 5
 158 -133 l 5
 43 -133 l 5xd8
288 99 m 4
 363 99 424 163 424 243 c 4
 424 323 363 388 288 388 c 4xd8
 213 388 152 323 152 243 c 4
 152 163 213 99 288 99 c 4
EndSplineSet
Validated: 1
EndChar

StartChar: q
Encoding: 113 113 43
Width: 575
VWidth: 0
Flags: HW
LayerCount: 3
Fore
SplineSet
529 -131 m 5
 413 -131 l 5
 413 54 l 5
 373 15 318 -7 262 -8 c 4
 261 -8 260 -8 258 -8 c 4
 196 -8 134 17 93 70 c 4
 52 124 35 182 35 239 c 4
 35 306 58 369 93 418 c 4
 129 469 194 493 258 493 c 4
 321 493 384 470 421 429 c 5
 434 479 l 5
 529 479 l 5
 529 -131 l 5
284 100 m 4
 359 100 419 165 419 245 c 4
 419 325 359 389 284 389 c 4
 209 389 148 325 148 245 c 4
 148 165 209 100 284 100 c 4
EndSplineSet
Validated: 1
EndChar

StartChar: r
Encoding: 114 114 44
Width: 315
VWidth: 0
Flags: HW
LayerCount: 3
Fore
SplineSet
43 481 m 1
 138 481 l 1
 150 407 l 1
 200 472 232 481 261 481 c 0
 266 481 272 480 277 480 c 1
 277 382 l 1
 215 377 159 335 159 249 c 2
 159 0 l 1
 43 0 l 1
 43 481 l 1
EndSplineSet
Validated: 1
EndChar

StartChar: s
Encoding: 115 115 45
Width: 512
VWidth: 0
Flags: W
HStem: -4 91<181.629 344.775> 400 89<166.521 337.962>
VStem: 44 109<315.858 385.706> 363 112<106.142 175.938>
LayerCount: 3
Fore
SplineSet
31 160 m 5
 143 160 l 5
 158 108 213 87 264 87 c 4
 310 87 353 104 360 129 c 4
 362 135 363 141 363 146 c 4
 363 170 340 179 298 192 c 4
 267 202 211 208 183 211 c 4
 162 213 98 236 62 279 c 4
 50 293 44 313 44 334 c 4
 44 362 55 393 73 420 c 4
 104 466 176 489 250 489 c 4
 356 489 466 443 471 354 c 5
 355 354 l 5
 329 405 296 398 246 400 c 4
 244 400 242 400 241 400 c 4
 205 400 166 391 156 364 c 4
 154 358 153 352 153 347 c 4
 153 326 173 313 206 304 c 4
 240 295 289 292 334 282 c 4
 383 271 438 263 465 196 c 4
 472 179 475 161 475 142 c 4
 475 115 469 90 458 72 c 4
 426 20 362 3 288 -3 c 4
 278 -4 268 -4 258 -4 c 4
 121 -4 37 77 31 160 c 5
EndSplineSet
Validated: 1
EndChar

StartChar: t
Encoding: 116 116 46
Width: 338
VWidth: 0
Flags: W
HStem: 0 101<210.578 296> 379 101<33 87 203 298>
VStem: 87 116<108.513 379 480 598>
LayerCount: 3
Fore
SplineSet
87 598 m 1
 203 598 l 1
 203 480 l 1
 298 480 l 1
 298 379 l 1
 203 379 l 1
 203 167 l 2
 203 104 225 101 261 101 c 0
 265 101 269 101 274 101 c 0
 281 101 288 101 296 100 c 1
 296 1 l 1
 279 0 263 0 249 0 c 0
 100 0 87 51 87 167 c 2
 87 379 l 1
 33 379 l 1
 33 480 l 1
 87 480 l 1
 87 598 l 1
EndSplineSet
Validated: 1
EndChar

StartChar: u
Encoding: 117 117 47
Width: 518
VWidth: 0
Flags: HW
LayerCount: 3
Fore
SplineSet
474 202 m 6
 474 58 369 -11 262 -11 c 4
 152 -11 41 62 41 202 c 6
 41 482 l 5
 156 482 l 5
 156 208 l 6
 156 138 210 99 262 99 c 4
 311 99 358 133 358 208 c 6
 358 482 l 5
 474 482 l 5
 474 202 l 6
EndSplineSet
Validated: 1
EndChar

StartChar: v
Encoding: 118 118 48
Width: 555
VWidth: 0
Flags: HW
LayerCount: 3
Fore
SplineSet
29 482 m 1
 146 482 l 1
 276 132 l 1
 406 482 l 1
 525 482 l 1
 341 0 l 1
 210 0 l 1
 29 482 l 1
EndSplineSet
Validated: 1
EndChar

StartChar: w
Encoding: 119 119 49
Width: 784
VWidth: 0
Flags: HW
LayerCount: 3
Fore
SplineSet
29 483 m 1
 139 483 l 1
 239 132 l 1
 338 483 l 1
 449 483 l 1
 550 132 l 1
 649 483 l 1
 754 483 l 1
 613 0 l 1
 480 0 l 1
 390 309 l 1
 300 0 l 1
 170 0 l 1
 29 483 l 1
EndSplineSet
Validated: 1
EndChar

StartChar: x
Encoding: 120 120 50
Width: 534
VWidth: 0
Flags: W
HStem: 0 21G<27 163.671 354.076 500> 461 20G<34 174.214 369.164 504>
LayerCount: 3
Fore
SplineSet
34 481 m 1
 160 481 l 1
 273 322 l 1
 383 481 l 1
 504 481 l 1
 331 240 l 1
 500 0 l 1
 368 0 l 1
 258 158 l 1
 150 0 l 1
 27 0 l 1
 201 241 l 1
 34 481 l 1
EndSplineSet
Validated: 1
EndChar

StartChar: y
Encoding: 121 121 51
Width: 549
VWidth: 0
Flags: HW
LayerCount: 3
Fore
SplineSet
28 481 m 5
 147 481 l 5
 276 159 l 5
 406 481 l 5
 520 481 l 5
 274 -130 l 5
 160 -130 l 5
 220 19 l 5
 28 481 l 5
EndSplineSet
Validated: 1
EndChar

StartChar: z
Encoding: 122 122 52
Width: 481
VWidth: 0
Flags: HW
LayerCount: 3
Fore
SplineSet
436 376 m 1
 178 99 l 1
 443 99 l 1
 443 0 l 1
 36 0 l 1
 36 99 l 1
 291 376 l 1
 43 376 l 1
 43 477 l 1
 436 477 l 1
 436 376 l 1
EndSplineSet
Validated: 1
EndChar

StartChar: braceleft
Encoding: 123 123 53
Width: 425
VWidth: 0
Flags: HW
LayerCount: 3
Fore
SplineSet
391 648 m 1
 391 541 l 1
 286 520 232 386 232 252 c 0
 232 122 283 -8 391 -36 c 1
 391 -141 l 1
 219 -111 135 29 114 199 c 1
 33 199 l 1
 33 310 l 1
 114 310 l 1
 138 494 217 621 391 648 c 1
EndSplineSet
Validated: 1
EndChar

StartChar: braceright
Encoding: 125 125 54
Width: 424
VWidth: 0
Flags: HW
LayerCount: 3
Fore
SplineSet
34 645 m 1
 208 618 287 491 311 307 c 1
 391 307 l 1
 391 196 l 1
 311 196 l 1
 290 26 204 -112 32 -142 c 1
 32 -38 l 1
 140 -10 192 121 192 251 c 0
 192 384 138 517 34 538 c 1
 34 645 l 1
EndSplineSet
Validated: 1
EndChar

StartChar: bar
Encoding: 124 124 55
Width: 205
VWidth: 0
Flags: HW
LayerCount: 3
Fore
SplineSet
45 -134 m 1
 45 650 l 1
 160 650 l 1
 160 -134 l 1
 45 -134 l 1
EndSplineSet
Validated: 1
EndChar

StartChar: asciitilde
Encoding: 126 126 56
Width: 439
VWidth: 0
Flags: HW
LayerCount: 3
Fore
SplineSet
37 262 m 1
 38 300 48 354 82 372 c 0
 99 381 115 384 132 384 c 0
 177 384 221 359 267 355 c 0
 271 355 276 354 280 354 c 0
 295 354 306 358 306 374 c 0
 306 377 306 380 305 383 c 1
 402 383 l 1
 396 347 395 295 363 276 c 0
 343 264 323 259 302 259 c 0
 257 259 210 280 164 287 c 0
 159 288 154 289 148 289 c 0
 140 289 132 285 131 262 c 1
 37 262 l 1
EndSplineSet
Validated: 1
EndChar

StartChar: exclam
Encoding: 33 33 57
Width: 213
VWidth: 0
Flags: HW
LayerCount: 3
Fore
SplineSet
40 628 m 1
 174 628 l 1
 161 201 l 1
 51 201 l 1
 40 628 l 1
43 113 m 1
 169 113 l 1
 169 0 l 1
 43 0 l 1
 43 113 l 1
EndSplineSet
Validated: 1
EndChar

StartChar: quotedbl
Encoding: 34 34 58
Width: 380
VWidth: 0
Flags: HW
LayerCount: 3
Fore
SplineSet
38 630 m 1
 156 630 l 1
 146 394 l 1
 50 394 l 1
 38 630 l 1
220 630 m 1
 341 630 l 1
 331 393 l 1
 231 393 l 1
 220 630 l 1
EndSplineSet
Validated: 1
EndChar

StartChar: numbersign
Encoding: 35 35 59
Width: 558
VWidth: 0
Flags: W
HStem: 173 100<38 101 224 297 421 521> 363 102<38 130 253 326 450 521> 610 20G<166.97 278 363.97 475>
LayerCount: 3
Fore
SplineSet
170 630 m 1
 278 630 l 1
 253 465 l 1
 342 465 l 1
 367 630 l 1
 475 630 l 1
 450 465 l 1
 521 465 l 1
 521 363 l 1
 434 363 l 1
 421 273 l 1
 521 273 l 1
 521 173 l 1
 405 173 l 1
 380 5 l 1
 272 5 l 1
 297 173 l 1
 209 173 l 1
 183 5 l 1
 75 5 l 1
 101 173 l 1
 38 173 l 1
 38 273 l 1
 116 273 l 1
 130 363 l 1
 38 363 l 1
 38 465 l 1
 145 465 l 1
 170 630 l 1
238 363 m 1
 224 273 l 1
 313 273 l 1
 326 363 l 1
 238 363 l 1
EndSplineSet
Validated: 1
EndChar

StartChar: dollar
Encoding: 36 36 60
Width: 547
VWidth: 0
Flags: HW
LayerCount: 3
Fore
SplineSet
221 735 m 1
 339 735 l 1
 339 632 l 1
 428 610 504 552 506 473 c 1
 385 472 l 1
 384 514 324 541 266 541 c 0
 214 541 163 519 161 465 c 0
 161 464 161 464 161 463 c 0
 161 405 247 385 290 377 c 0
 351 366 517 332 517 168 c 0
 517 167 l 0
 516 73 436 6 339 -14 c 1
 339 -136 l 1
 221 -136 l 1
 221 -15 l 1
 134 2 54 62 27 177 c 1
 144 177 l 1
 151 121 222 91 288 91 c 0
 346 91 400 114 405 164 c 0
 405 167 405 170 405 172 c 0
 405 237 326 259 270 270 c 0
 140 295 48 354 47 452 c 0
 47 453 47 453 47 454 c 0
 47 571 128 627 221 639 c 1
 221 735 l 1
EndSplineSet
Validated: 1
EndChar

StartChar: percent
Encoding: 37 37 61
Width: 830
VWidth: 0
Flags: HW
LayerCount: 3
Fore
SplineSet
206 638 m 0
 301 638 378 562 378 468 c 0
 378 374 301 298 206 298 c 0
 111 298 33 374 33 468 c 0
 33 562 111 638 206 638 c 0
527 632 m 1
 632 632 l 1
 301 3 l 1
 200 3 l 1
 527 632 l 1
123 467 m 0
 123 420 160 383 207 383 c 0
 254 383 292 420 292 467 c 0
 292 514 254 551 207 551 c 0
 160 551 123 514 123 467 c 0
624 332 m 0
 719 332 797 256 797 162 c 0
 797 68 719 -8 624 -8 c 0
 529 -8 451 68 451 162 c 0
 451 256 529 332 624 332 c 0
541 161 m 0
 541 114 579 77 626 77 c 0
 673 77 710 114 710 161 c 0
 710 208 673 245 626 245 c 0
 579 245 541 208 541 161 c 0
EndSplineSet
Validated: 1
EndChar

StartChar: ampersand
Encoding: 38 38 62
Width: 587
VWidth: 0
Flags: HW
LayerCount: 3
Fore
SplineSet
97 630 m 1
 476 630 l 1
 476 527 l 1
 214 527 l 1
 407 233 l 1
 430 288 438 343 438 363 c 0
 438 368 438 371 437 371 c 2
 545 371 l 1
 545 371 531 247 468 140 c 1
 558 3 l 1
 435 3 l 1
 401 55 l 1
 358 16 304 -12 234 -13 c 0
 233 -13 231 -13 230 -13 c 0
 138 -13 37 60 33 172 c 0
 33 174 33 176 33 178 c 0
 33 289 136 365 187 385 c 1
 97 523 l 1
 97 630 l 1
242 299 m 1
 210 285 143 249 143 186 c 0
 143 180 144 174 145 167 c 0
 156 109 198 90 239 90 c 0
 257 90 275 94 290 99 c 0
 312 107 331 121 347 138 c 1
 242 299 l 1
EndSplineSet
Validated: 1
EndChar

StartChar: quotesingle
Encoding: 39 39 63
Width: 197
VWidth: 0
Flags: HW
LayerCount: 3
Fore
SplineSet
38 625 m 1
 159 625 l 1
 149 389 l 1
 49 389 l 1
 38 625 l 1
EndSplineSet
Validated: 1
EndChar

StartChar: parenleft
Encoding: 40 40 64
Width: 345
VWidth: 0
Flags: HW
LayerCount: 3
Fore
SplineSet
311 647 m 1
 311 540 l 1
 198 503 146 378 146 253 c 0
 146 121 204 -10 311 -36 c 1
 311 -141 l 1
 131 -116 34 73 34 261 c 0
 34 439 122 615 311 647 c 1
EndSplineSet
Validated: 1
EndChar

StartChar: parenright
Encoding: 41 41 65
Width: 343
VWidth: 0
Flags: HW
LayerCount: 3
Fore
SplineSet
33 643 m 0
 222 611 310 435 310 257 c 0
 310 69 213 -120 33 -145 c 1
 33 -40 l 1
 140 -14 198 117 198 249 c 0
 198 374 146 499 33 536 c 1
 33 643 l 0
EndSplineSet
Validated: 1
EndChar

StartChar: asterisk
Encoding: 42 42 66
Width: 427
VWidth: 0
Flags: HW
LayerCount: 3
Fore
SplineSet
152 631 m 1
 273 631 l 1
 249 518 l 1
 335 593 l 1
 394 491 l 1
 290 454 l 1
 393 416 l 1
 334 314 l 1
 249 387 l 1
 272 276 l 1
 154 276 l 1
 179 391 l 1
 94 313 l 1
 34 416 l 1
 142 451 l 1
 33 490 l 1
 93 593 l 1
 180 516 l 1
 152 631 l 1
EndSplineSet
Validated: 1
EndChar

StartChar: plus
Encoding: 43 43 67
Width: 436
VWidth: 0
Flags: HW
LayerCount: 3
Fore
SplineSet
160 507 m 1
 271 507 l 1
 271 368 l 1
 401 368 l 1
 401 266 l 1
 271 266 l 1
 271 132 l 1
 160 132 l 1
 160 266 l 1
 35 266 l 1
 35 368 l 1
 160 368 l 1
 160 507 l 1
EndSplineSet
Validated: 1
EndChar

StartChar: comma
Encoding: 44 44 68
Width: 204
VWidth: 0
Flags: HW
LayerCount: 3
Fore
SplineSet
41 107 m 1
 168 107 l 1
 117 -113 l 1
 41 -113 l 1
 41 107 l 1
EndSplineSet
Validated: 1
EndChar

StartChar: hyphen
Encoding: 45 45 69
Width: 452
VWidth: 0
Flags: HW
LayerCount: 3
Fore
SplineSet
48 248 m 1
 48 352 l 1
 402 352 l 1
 402 248 l 1
 48 248 l 1
EndSplineSet
EndChar

StartChar: period
Encoding: 46 46 70
Width: 203
VWidth: 0
Flags: HW
LayerCount: 3
Fore
SplineSet
40 -1 m 1
 40 109 l 1
 163 109 l 1
 163 -1 l 1
 40 -1 l 1
EndSplineSet
Validated: 1
EndChar

StartChar: slash
Encoding: 47 47 71
Width: 336
VWidth: 0
Flags: W
HStem: 0 21G<29 143.391> 607 20G<191.641 307>
VStem: 29 278
LayerCount: 3
Fore
SplineSet
29 0 m 1
 197 627 l 1
 307 627 l 1
 138 0 l 1
 29 0 l 1
EndSplineSet
Validated: 1
EndChar

StartChar: zero
Encoding: 48 48 72
Width: 641
VWidth: 0
Flags: W
HStem: -15 105<248.772 393.527> 537 105<249.084 392.955>
VStem: 35 115<205.576 420.594> 492 116<206.776 416.969>
LayerCount: 3
Fore
SplineSet
322 642 m 0
 494 642 608 504 608 318 c 2
 608 313 l 1
 606 123 498 -15 322 -15 c 0
 142 -15 35 123 35 313 c 0
 35 503 144 642 322 642 c 0
321 537 m 0
 227 537 150 436 150 313 c 0
 150 190 227 90 321 90 c 0
 415 90 492 190 492 313 c 0
 492 436 415 537 321 537 c 0
EndSplineSet
Validated: 1
EndChar

StartChar: one
Encoding: 49 49 73
Width: 265
VWidth: 0
Flags: W
HStem: 1 21G<106 220> 522 106<33 106>
VStem: 33 187<522 628> 106 114<1 522>
LayerCount: 3
Fore
SplineSet
33 628 m 1xe0
 220 628 l 1xe0
 220 1 l 1
 106 1 l 1
 106 522 l 1xd0
 33 522 l 1
 33 628 l 1xe0
EndSplineSet
Validated: 1
EndChar

StartChar: two
Encoding: 50 50 74
Width: 539
VWidth: 0
Flags: HW
LayerCount: 3
Fore
SplineSet
155 451 m 1
 38 451 l 1
 53 538 117 637 272 641 c 0
 275 641 277 641 280 641 c 0
 389 641 484 583 493 456 c 0
 493 452 493 448 493 444 c 0
 493 359 424 288 371 255 c 0
 241 173 203 160 166 107 c 1
 507 107 l 1
 507 0 l 1
 33 0 l 1
 33 115 43 149 110 205 c 0
 176 261 263 301 321 340 c 0
 364 368 380 405 380 444 c 0
 380 446 380 449 380 451 c 0
 378 506 327 533 274 533 c 0
 220 533 164 505 155 451 c 1
EndSplineSet
Validated: 1
EndChar

StartChar: three
Encoding: 51 51 75
Width: 563
VWidth: 0
Flags: HW
LayerCount: 3
Fore
SplineSet
50 470 m 1
 52 563 168 638 292 639 c 0
 293 639 295 639 296 639 c 0
 417 639 510 594 514 475 c 0
 514 473 514 472 514 470 c 0
 514 399 473 365 429 347 c 1
 483 323 530 292 530 188 c 0
 530 94 487 -15 291 -15 c 0
 290 -15 289 -15 288 -15 c 0
 106 -14 48 77 29 179 c 1
 150 179 l 1
 164 126 200 89 294 89 c 0
 295 89 296 89 297 89 c 0
 392 89 423 137 424 190 c 0
 424 191 424 193 424 194 c 0
 424 253 379 286 310 286 c 0
 309 286 308 286 307 286 c 2
 219 285 l 1
 219 381 l 1
 303 381 l 2
 351 381 406 390 407 458 c 0
 407 459 l 0
 407 515 351 539 293 539 c 0
 233 539 171 512 168 469 c 1
 50 470 l 1
EndSplineSet
Validated: 1
EndChar

StartChar: four
Encoding: 52 52 76
Width: 584
VWidth: 0
Flags: HW
LayerCount: 3
Fore
SplineSet
325 628 m 1
 464 628 l 1
 464 210 l 1
 551 210 l 1
 551 108 l 1
 464 108 l 1
 464 0 l 1
 356 0 l 1
 356 108 l 1
 35 108 l 1
 35 210 l 1
 325 628 l 1
356 508 m 1
 148 210 l 1
 356 210 l 1
 356 508 l 1
EndSplineSet
Validated: 1
EndChar

StartChar: five
Encoding: 53 53 77
Width: 560
VWidth: 0
Flags: HW
LayerCount: 3
Fore
SplineSet
87 625 m 1
 483 625 l 1
 483 519 l 1
 186 519 l 1
 171 389 l 1
 216 410 261 409 306 410 c 0
 308 410 309 410 311 410 c 0
 455 410 527 323 527 204 c 0
 527 202 527 199 527 197 c 0
 524 63 429 -17 290 -17 c 0
 148 -17 53 35 29 153 c 1
 153 151 l 1
 173 112 218 91 286 83 c 0
 290 83 295 82 299 82 c 0
 370 82 420 151 420 195 c 0
 420 196 l 0
 419 260 373 313 300 316 c 0
 295 316 290 316 285 316 c 0
 233 316 187 306 149 278 c 1
 57 308 l 1
 87 625 l 1
EndSplineSet
Validated: 1
EndChar

StartChar: six
Encoding: 54 54 78
Width: 586
VWidth: 0
Flags: HW
LayerCount: 3
Fore
SplineSet
306 -18 m 0
 198 -17 46 4 35 293 c 0
 35 299 35 305 35 311 c 0
 35 473 114 634 305 634 c 2
 312 634 l 1
 458 631 522 541 537 469 c 1
 415 469 l 1
 408 510 362 535 294 535 c 0
 200 535 152 446 152 368 c 0
 152 361 152 353 153 346 c 1
 200 389 258 409 317 409 c 0
 326 409 334 409 343 408 c 0
 491 393 552 313 553 200 c 1
 553 198 l 2
 553 57 438 -18 309 -18 c 0
 308 -18 307 -18 306 -18 c 0
300 81 m 0
 383 81 450 133 450 197 c 0
 450 261 383 313 300 313 c 0
 217 313 150 261 150 197 c 0
 150 133 217 81 300 81 c 0
EndSplineSet
Validated: 1
EndChar

StartChar: seven
Encoding: 55 55 79
Width: 524
VWidth: 0
Flags: HW
LayerCount: 3
Fore
SplineSet
33 626 m 1
 491 626 l 1
 491 523 l 1
 244 -2 l 1
 123 -2 l 1
 370 523 l 1
 33 523 l 1
 33 626 l 1
EndSplineSet
Validated: 1
EndChar

StartChar: eight
Encoding: 56 56 80
Width: 577
VWidth: 0
Flags: HW
LayerCount: 3
Fore
SplineSet
544 185 m 0
 544 92 498 -18 289 -18 c 0
 80 -18 34 92 34 185 c 0
 34 288 83 319 139 342 c 1
 94 360 51 393 51 465 c 0
 51 467 51 468 51 470 c 0
 55 590 153 634 289 634 c 0
 425 634 523 590 527 470 c 0
 527 468 527 467 527 465 c 0
 527 393 484 360 439 342 c 1
 495 319 544 288 544 185 c 0
145 186 m 0
 146 132 178 85 289 85 c 0
 400 85 432 132 433 186 c 0
 433 187 433 189 433 190 c 0
 433 250 386 286 289 286 c 0
 192 286 145 250 145 190 c 0
 145 189 145 187 145 186 c 0
162 452 m 0
 163 384 237 376 289 376 c 0
 341 376 415 385 416 453 c 0
 416 454 l 0
 416 511 355 536 289 536 c 0
 223 536 162 510 162 453 c 0
 162 452 l 0
EndSplineSet
Validated: 1
EndChar

StartChar: nine
Encoding: 57 57 81
Width: 586
VWidth: 0
Flags: HW
LayerCount: 3
Fore
SplineSet
280 652 m 0
 388 651 541 630 552 341 c 1
 552 324 l 2
 552 162 472 0 281 0 c 2
 274 0 l 1
 128 3 65 93 50 165 c 1
 171 165 l 1
 178 124 224 98 292 98 c 0
 386 98 434 188 434 266 c 0
 434 273 434 281 433 288 c 1
 386 245 329 225 270 225 c 0
 261 225 253 225 244 226 c 0
 96 241 34 320 33 433 c 1
 33 435 l 2
 33 576 148 652 277 652 c 0
 278 652 279 652 280 652 c 0
286 553 m 0
 203 553 136 501 136 437 c 0
 136 373 203 321 286 321 c 0
 369 321 436 373 436 437 c 0
 436 501 369 553 286 553 c 0
EndSplineSet
Validated: 1
EndChar

StartChar: colon
Encoding: 58 58 82
Width: 207
VWidth: 0
Flags: HW
LayerCount: 3
Fore
SplineSet
42 493 m 1
 167 493 l 1
 167 388 l 1
 42 388 l 1
 42 493 l 1
41 123 m 1
 166 123 l 1
 166 18 l 1
 41 18 l 1
 41 123 l 1
EndSplineSet
Validated: 1
EndChar

StartChar: semicolon
Encoding: 59 59 83
Width: 204
VWidth: 0
Flags: HW
LayerCount: 3
Fore
SplineSet
44 491 m 1
 168 491 l 1
 168 386 l 1
 44 386 l 1
 44 491 l 1
41 121 m 1
 166 121 l 1
 122 -98 l 1
 41 -98 l 1
 41 121 l 1
EndSplineSet
Validated: 1
EndChar

StartChar: less
Encoding: 60 60 84
Width: 421
VWidth: 0
Flags: HW
LayerCount: 3
Fore
SplineSet
381 541 m 1
 381 442 l 1
 134 332 l 1
 381 219 l 1
 381 118 l 1
 36 273 l 1
 36 393 l 1
 381 541 l 1
EndSplineSet
Validated: 1
EndChar

StartChar: equal
Encoding: 61 61 85
Width: 435
VWidth: 0
Flags: HW
LayerCount: 3
Fore
SplineSet
45 477 m 1
 393 477 l 1
 393 376 l 1
 45 376 l 1
 45 477 l 1
44 286 m 1
 391 286 l 1
 391 183 l 1
 44 183 l 1
 44 286 l 1
EndSplineSet
Validated: 1
EndChar

StartChar: greater
Encoding: 62 62 86
Width: 422
VWidth: 0
Flags: HW
LayerCount: 3
Fore
SplineSet
40 538 m 1
 386 390 l 1
 386 269 l 1
 40 115 l 1
 40 215 l 1
 288 328 l 1
 40 439 l 1
 40 538 l 1
EndSplineSet
Validated: 1
EndChar

StartChar: question
Encoding: 63 63 87
Width: 485
VWidth: 0
Flags: HW
LayerCount: 3
Fore
SplineSet
258 654 m 1
 357 653 452 594 452 459 c 2
 452 449 l 1
 448 328 288 316 288 221 c 0
 288 218 289 214 289 211 c 1
 180 211 l 1
 180 215 l 2
 180 372 339 363 339 466 c 2
 339 467 l 2
 339 524 297 548 252 548 c 0
 200 548 144 516 143 468 c 1
 32 470 l 1
 35 585 148 654 256 654 c 2
 258 654 l 1
170 125 m 1
 293 125 l 1
 293 13 l 1
 170 13 l 1
 170 125 l 1
EndSplineSet
Validated: 1
EndChar

StartChar: bracketleft
Encoding: 91 91 88
Width: 337
VWidth: 0
Flags: HW
LayerCount: 3
Fore
SplineSet
45 645 m 1
 303 645 l 1
 303 538 l 1
 162 538 l 1
 162 -33 l 1
 303 -33 l 1
 303 -141 l 1
 45 -141 l 1
 45 645 l 1
EndSplineSet
Validated: 1
EndChar

StartChar: backslash
Encoding: 92 92 89
Width: 340
VWidth: 0
Flags: W
HStem: 0 21G<192.592 311> 605 20G<29 145.472>
VStem: 29 282
LayerCount: 3
Fore
SplineSet
29 625 m 1
 140 625 l 1
 311 0 l 1
 198 0 l 1
 29 625 l 1
EndSplineSet
Validated: 1
EndChar

StartChar: bracketright
Encoding: 93 93 90
Width: 337
VWidth: 0
Flags: HW
LayerCount: 3
Fore
SplineSet
292 644 m 1
 292 -142 l 1
 33 -142 l 1
 33 -34 l 1
 174 -34 l 1
 174 537 l 1
 33 537 l 1
 33 644 l 1
 292 644 l 1
EndSplineSet
Validated: 1
EndChar

StartChar: asciicircum
Encoding: 94 94 91
Width: 486
VWidth: 0
Flags: HW
LayerCount: 3
Fore
SplineSet
455 275 m 1
 355 275 l 1
 245 522 l 1
 132 275 l 1
 31 275 l 1
 186 620 l 1
 306 620 l 1
 455 275 l 1
EndSplineSet
Validated: 1
EndChar

StartChar: underscore
Encoding: 95 95 92
Width: 452
VWidth: 0
Flags: HW
LayerCount: 3
Fore
SplineSet
48 -143 m 1
 48 -39 l 1
 402 -39 l 1
 402 -143 l 1
 48 -143 l 1
EndSplineSet
Validated: 1
EndChar

StartChar: grave
Encoding: 96 96 93
Width: 285
VWidth: 0
Flags: HW
LayerCount: 3
Fore
SplineSet
33 644 m 1
 152 644 l 1
 250 519 l 1
 134 519 l 1
 33 644 l 1
EndSplineSet
Validated: 1
EndChar

